<svg id="visual" viewBox="0 0 960 540" width="960" height="540" xmlns="http://www.w3.org/2000/svg" xmlns:xlink="http://www.w3.org/1999/xlink" version="1.1"><rect x="0" y="0" width="960" height="540" fill="#ffffff"></rect><defs><linearGradient id="grad1_0" x1="43.8%" y1="0%" x2="100%" y2="100%"><stop offset="14.444444444444446%" stop-color="#894bef" stop-opacity="1"></stop><stop offset="85.55555555555554%" stop-color="#894bef" stop-opacity="1"></stop></linearGradient></defs><defs><linearGradient id="grad1_1" x1="43.8%" y1="0%" x2="100%" y2="100%"><stop offset="14.444444444444446%" stop-color="#894bef" stop-opacity="1"></stop><stop offset="85.55555555555554%" stop-color="#b788f6" stop-opacity="1"></stop></linearGradient></defs><defs><linearGradient id="grad1_2" x1="43.8%" y1="0%" x2="100%" y2="100%"><stop offset="14.444444444444446%" stop-color="#ddc3fb" stop-opacity="1"></stop><stop offset="85.55555555555554%" stop-color="#b788f6" stop-opacity="1"></stop></linearGradient></defs><defs><linearGradient id="grad1_3" x1="43.8%" y1="0%" x2="100%" y2="100%"><stop offset="14.444444444444446%" stop-color="#ddc3fb" stop-opacity="1"></stop><stop offset="85.55555555555554%" stop-color="#ffffff" stop-opacity="1"></stop></linearGradient></defs><defs><linearGradient id="grad2_0" x1="0%" y1="0%" x2="56.3%" y2="100%"><stop offset="14.444444444444446%" stop-color="#894bef" stop-opacity="1"></stop><stop offset="85.55555555555554%" stop-color="#894bef" stop-opacity="1"></stop></linearGradient></defs><defs><linearGradient id="grad2_1" x1="0%" y1="0%" x2="56.3%" y2="100%"><stop offset="14.444444444444446%" stop-color="#b788f6" stop-opacity="1"></stop><stop offset="85.55555555555554%" stop-color="#894bef" stop-opacity="1"></stop></linearGradient></defs><defs><linearGradient id="grad2_2" x1="0%" y1="0%" x2="56.3%" y2="100%"><stop offset="14.444444444444446%" stop-color="#b788f6" stop-opacity="1"></stop><stop offset="85.55555555555554%" stop-color="#ddc3fb" stop-opacity="1"></stop></linearGradient></defs><defs><linearGradient id="grad2_3" x1="0%" y1="0%" x2="56.3%" y2="100%"><stop offset="14.444444444444446%" stop-color="#ffffff" stop-opacity="1"></stop><stop offset="85.55555555555554%" stop-color="#ddc3fb" stop-opacity="1"></stop></linearGradient></defs><g transform="translate(960, 0)"><path d="M0 216C-22.6 214 -45.3 212 -66.7 205.4C-88.2 198.9 -108.4 187.7 -126.4 173.9C-144.3 160.1 -159.9 143.6 -172.3 125.2C-184.7 106.8 -193.9 86.4 -200.7 65.2C-207.4 44 -211.7 22 -216 0L0 0Z" fill="#efe1fd"></path><path d="M0 162C-17 160.5 -34 159 -50.1 154.1C-66.1 149.1 -81.3 140.8 -94.8 130.5C-108.2 120.1 -119.9 107.7 -129.2 93.9C-138.5 80.1 -145.4 64.8 -150.5 48.9C-155.6 33 -158.8 16.5 -162 0L0 0Z" fill="#cba5f9"></path><path d="M0 108C-11.3 107 -22.6 106 -33.4 102.7C-44.1 99.4 -54.2 93.9 -63.2 87C-72.2 80.1 -80 71.8 -86.2 62.6C-92.4 53.4 -97 43.2 -100.3 32.6C-103.7 22 -105.9 11 -108 0L0 0Z" fill="#a16af3"></path><path d="M0 54C-5.7 53.5 -11.3 53 -16.7 51.4C-22 49.7 -27.1 46.9 -31.6 43.5C-36.1 40 -40 35.9 -43.1 31.3C-46.2 26.7 -48.5 21.6 -50.2 16.3C-51.9 11 -52.9 5.5 -54 0L0 0Z" fill="#894bef"></path></g><g transform="translate(0, 540)"><path d="M0 -216C20.1 -206.6 40.1 -197.2 62.4 -192.1C84.7 -187 109.2 -186.2 127 -174.7C144.7 -163.3 155.8 -141.3 167.5 -121.7C179.2 -102 191.5 -84.8 199.7 -64.9C207.9 -45 212 -22.5 216 0L0 0Z" fill="#efe1fd"></path><path d="M0 -162C15.1 -155 30.1 -147.9 46.8 -144.1C63.5 -140.3 81.9 -139.6 95.2 -131.1C108.5 -122.5 116.8 -106 125.6 -91.3C134.4 -76.5 143.6 -63.6 149.8 -48.7C155.9 -33.8 159 -16.9 162 0L0 0Z" fill="#cba5f9"></path><path d="M0 -108C10 -103.3 20.1 -98.6 31.2 -96.1C42.4 -93.5 54.6 -93.1 63.5 -87.4C72.4 -81.7 77.9 -70.7 83.7 -60.8C89.6 -51 95.8 -42.4 99.9 -32.4C104 -22.5 106 -11.3 108 0L0 0Z" fill="#a16af3"></path><path d="M0 -54C5 -51.7 10 -49.3 15.6 -48C21.2 -46.8 27.3 -46.5 31.7 -43.7C36.2 -40.8 38.9 -35.3 41.9 -30.4C44.8 -25.5 47.9 -21.2 49.9 -16.2C52 -11.3 53 -5.6 54 0L0 0Z" fill="#894bef"></path></g></svg>